<svg xmlns="http://www.w3.org/2000/svg" width="19" height="12" viewBox="0 0 19 12"><defs><style>.a{fill:#fff;}</style></defs><g transform="translate(-172.933 -969.689)"><g transform="translate(172.933 969.689)"><path class="a" d="M180.644,975.028a2.028,2.028,0,0,0,1.781-2.247v-.007c0-2.135-1.424-3.084-3.322-3.084h-6.169v11.745H179.1s3.8.119,3.8-3.44C182.78,977.875,183.017,975.028,180.644,975.028Zm-4.983-3.322h3.44s.83,0,.83,1.186-.475,1.424-1.068,1.424h-3.2Zm3.322,7.593h-3.322v-3.2h3.44s1.186,0,1.186,1.661c0,1.424-.83,1.542-1.3,1.542Z" transform="translate(-172.933 -969.689)"/></g><g transform="translate(185.171 970.282)"><rect class="a" width="4.864" height="1.424"/></g><g transform="translate(183.255 972.655)"><path class="a" d="M186.244,972.189c-4.508,0-4.508,4.508-4.508,4.508a4.145,4.145,0,0,0,3.747,4.508,4.071,4.071,0,0,0,.762,0s4.034.237,4.034-3.084h-2.017s.119,1.3-1.9,1.3a1.883,1.883,0,0,1-2.017-1.738,1.825,1.825,0,0,1,0-.279h6.05C190.278,977.29,190.989,972.189,186.244,972.189Zm-2.135,3.44a2.048,2.048,0,0,1,2.017-1.78,1.743,1.743,0,0,1,1.78,1.706v.073Z" transform="translate(-181.718 -972.189)"/></g></g></svg>