<svg xmlns="http://www.w3.org/2000/svg" fill="black"  width="14" height="14" viewBox="0 0 14 14"><defs><style>.a{fill:#000000;}</style></defs><path class="a" d="M251.188,966.5h-.008a7,7,0,1,0,.008,0Zm-.017,1.527h.068a5.4,5.4,0,0,1,3.462,1.247,6.176,6.176,0,0,1-2.571,1.756c-.747-1.273-1.493-2.384-1.875-2.927A2.759,2.759,0,0,1,251.172,968.027Zm-2.512.568a.7.7,0,0,0,.068.1c.356.5,1.078,1.519,1.79,2.715a19.973,19.973,0,0,1-4.658.6A5.839,5.839,0,0,1,248.66,968.6Zm-2.953,4.947a22.415,22.415,0,0,0,5.625-.815,3.5,3.5,0,0,1,.255.543.394.394,0,0,0-.059.059,9.265,9.265,0,0,0-4.539,3.64A5.189,5.189,0,0,1,245.707,973.542Zm5.473,5.515a5.192,5.192,0,0,1-3.2-1.035,7.737,7.737,0,0,1,4.09-3.241,22.434,22.434,0,0,1,1.078,3.928A5.936,5.936,0,0,1,251.18,979.058Zm1.994-6.067-.008-.068a2.83,2.83,0,0,0-.178-.407c-.034-.068-.059-.127-.093-.187a9.215,9.215,0,0,0,2.775-2.062,5.441,5.441,0,0,1,1.061,2.885,12.137,12.137,0,0,0-2.206-.212c-.068,0-.127.008-.2.008a6.352,6.352,0,0,0-1.137.059C253.182,973,253.182,972.991,253.174,972.991Zm1.459,4.887a32.376,32.376,0,0,0-.959-3.445,4.591,4.591,0,0,1,.908-.042,8.8,8.8,0,0,1,2.113.271A6.16,6.16,0,0,1,254.633,977.878Z" transform="translate(-244.18 -966.5)"/></svg>