<svg xmlns="http://www.w3.org/2000/svg" xmlns:xlink="http://www.w3.org/1999/xlink" width="22" height="146" viewBox="0 0 22 146"><defs><style>.a{fill:none;}.b{clip-path:url(#a);}</style><clipPath id="a"><rect class="a" width="146" height="22"/></clipPath></defs><g class="b" transform="translate(22) rotate(90)"><path d="M593.416,758.675a3.881,3.881,0,0,0-1.141-1.266,5.986,5.986,0,0,0-1.618-.814,17.118,17.118,0,0,0-1.861-.523c-.612-.143-1.219-.28-1.813-.4a14.115,14.115,0,0,1-1.587-.416,3.343,3.343,0,0,1-1.124-.6,1.216,1.216,0,0,1-.433-.957,1.175,1.175,0,0,1,.249-.785,1.548,1.548,0,0,1,.6-.446,2.923,2.923,0,0,1,.785-.2,7.7,7.7,0,0,1,.8-.042,4.344,4.344,0,0,1,2.028.446,1.907,1.907,0,0,1,.957,1.706h4.155a5.227,5.227,0,0,0-.755-2.449,5.06,5.06,0,0,0-1.587-1.552,6.6,6.6,0,0,0-2.169-.832,12.439,12.439,0,0,0-2.509-.244,14.1,14.1,0,0,0-2.52.226,6.935,6.935,0,0,0-2.218.8,4.381,4.381,0,0,0-1.588,1.558,4.8,4.8,0,0,0-.6,2.521,3.36,3.36,0,0,0,.434,1.772,3.713,3.713,0,0,0,1.135,1.2,6.155,6.155,0,0,0,1.618.767c.606.2,1.225.369,1.861.511a25.231,25.231,0,0,1,3.65.987c.875.327,1.308.82,1.308,1.474a1.61,1.61,0,0,1-.273.969,2.1,2.1,0,0,1-.7.618,3.261,3.261,0,0,1-.921.339,4.737,4.737,0,0,1-.969.107,5.059,5.059,0,0,1-1.248-.155,3.219,3.219,0,0,1-1.065-.476,2.542,2.542,0,0,1-.755-.832,2.387,2.387,0,0,1-.291-1.219H579.1a5.086,5.086,0,0,0,2.42,4.376,7.145,7.145,0,0,0,2.355.922,13.177,13.177,0,0,0,2.7.279,13.666,13.666,0,0,0,2.664-.262,6.889,6.889,0,0,0,2.325-.91,4.824,4.824,0,0,0,2.277-4.34A3.715,3.715,0,0,0,593.416,758.675Z" transform="translate(-579.1 -744.273)"/><path d="M612.54,745.141v-5.322h-4.37v22h4.37V749.144h3.8v-4Z" transform="translate(-590.887 -739.819)"/><path d="M640.683,755.209a8.74,8.74,0,0,0-1.4-3.02,7.1,7.1,0,0,0-2.479-2.1,7.57,7.57,0,0,0-3.538-.785,8.289,8.289,0,0,0-3.312.642,7.673,7.673,0,0,0-4.233,4.435,9.25,9.25,0,0,0-.588,3.323,9.7,9.7,0,0,0,.571,3.389,7.69,7.69,0,0,0,1.617,2.646,7.04,7.04,0,0,0,2.556,1.712,9.129,9.129,0,0,0,3.389.6,8.338,8.338,0,0,0,4.614-1.231,7.33,7.33,0,0,0,2.836-4.1h-3.853a2.714,2.714,0,0,1-1.165,1.4,4.471,4.471,0,0,1-5.114-.291,4.394,4.394,0,0,1-1.076-3.08h11.48A11.217,11.217,0,0,0,640.683,755.209Zm-11.177.767a4.927,4.927,0,0,1,.2-1.046,3.231,3.231,0,0,1,.588-1.106,3.32,3.32,0,0,1,1.106-.88,3.866,3.866,0,0,1,1.742-.351,3.062,3.062,0,0,1,2.384.862,5.066,5.066,0,0,1,1.095,2.521Z" transform="translate(-597.929 -744.273)"/><path d="M670.408,755.209a8.764,8.764,0,0,0-1.4-3.02,7.114,7.114,0,0,0-2.48-2.1,7.552,7.552,0,0,0-3.537-.785,8.306,8.306,0,0,0-3.312.642,7.89,7.89,0,0,0-2.568,1.772,7.8,7.8,0,0,0-1.665,2.663,9.367,9.367,0,0,0-.583,3.323,9.683,9.683,0,0,0,.571,3.389,7.579,7.579,0,0,0,1.611,2.646,7.091,7.091,0,0,0,2.557,1.712,9.124,9.124,0,0,0,3.389.6,8.354,8.354,0,0,0,4.619-1.231,7.314,7.314,0,0,0,2.83-4.1h-3.846a2.732,2.732,0,0,1-1.172,1.4,3.867,3.867,0,0,1-2.277.666,3.924,3.924,0,0,1-2.835-.957,4.411,4.411,0,0,1-1.076-3.08h11.486A11.463,11.463,0,0,0,670.408,755.209Zm-11.177.767a4.9,4.9,0,0,1,.2-1.046,3.23,3.23,0,0,1,1.7-1.986,3.836,3.836,0,0,1,1.736-.351,3.055,3.055,0,0,1,2.384.862,4.952,4.952,0,0,1,1.093,2.521Z" transform="translate(-610.09 -744.273)"/><path d="M686.081,739.819v21.37h4.376v-21.37Z" transform="translate(-622.83 -739.819)"/><path d="M721.689,751.908a3.747,3.747,0,0,0-1.076-1.433,4.5,4.5,0,0,0-1.665-.815,8.412,8.412,0,0,0-2.169-.262,5.966,5.966,0,0,0-2.878.707,5.6,5.6,0,0,0-2.11,2,3.431,3.431,0,0,0-1.694-2.093,6.192,6.192,0,0,0-7.818,2.093h-.059v-2.342h-2.467v15.916h2.616v-9.911a3.765,3.765,0,0,1,.231-1.153,4.418,4.418,0,0,1,.743-1.338,4.36,4.36,0,0,1,1.32-1.112,3.9,3.9,0,0,1,1.955-.464,3.564,3.564,0,0,1,1.463.262,2.245,2.245,0,0,1,.909.743,2.911,2.911,0,0,1,.476,1.124,6.572,6.572,0,0,1,.137,1.415v10.434h2.616v-9.911a4,4,0,0,1,1.112-2.955,4.124,4.124,0,0,1,3.05-1.112,3.72,3.72,0,0,1,1.552.279,2.289,2.289,0,0,1,.939.755,2.817,2.817,0,0,1,.464,1.124,7.8,7.8,0,0,1,.119,1.385v10.434h2.621V754.019A5.247,5.247,0,0,0,721.689,751.908Z" transform="translate(-628.476 -744.313)"/><path d="M757.435,754.464a7.35,7.35,0,0,0-1.48-2.646,6.906,6.906,0,0,0-2.414-1.772,8.891,8.891,0,0,0-6.665,0,6.922,6.922,0,0,0-2.432,1.772,7.35,7.35,0,0,0-1.48,2.646,10.666,10.666,0,0,0-.493,3.276,10.507,10.507,0,0,0,.493,3.264,7.4,7.4,0,0,0,1.48,2.634,6.807,6.807,0,0,0,2.432,1.754,9.126,9.126,0,0,0,6.665,0,6.789,6.789,0,0,0,2.414-1.754,7.4,7.4,0,0,0,1.48-2.634,10.487,10.487,0,0,0,.494-3.264A10.646,10.646,0,0,0,757.435,754.464Zm-2.664,5.85a5.381,5.381,0,0,1-1.064,1.879,4.643,4.643,0,0,1-1.581,1.153,4.712,4.712,0,0,1-5.434-1.153,5.379,5.379,0,0,1-1.064-1.879,8.749,8.749,0,0,1,0-5.143,5.49,5.49,0,0,1,1.064-1.891,4.522,4.522,0,0,1,1.581-1.171,4.793,4.793,0,0,1,3.853,0,4.468,4.468,0,0,1,1.581,1.171,5.492,5.492,0,0,1,1.064,1.891,8.747,8.747,0,0,1,0,5.143Z" transform="translate(-645.927 -744.313)"/><path d="M786.564,752.865a4.444,4.444,0,0,0-.909-1.837,4.253,4.253,0,0,0-1.7-1.195,6.81,6.81,0,0,0-2.615-.434,5.506,5.506,0,0,0-5.172,2.9h-.06v-2.527h-2.461v15.916h2.615v-8.989a6.43,6.43,0,0,1,.291-1.986,4.517,4.517,0,0,1,.881-1.581,3.8,3.8,0,0,1,1.462-1.046,5.241,5.241,0,0,1,2.076-.375,3.23,3.23,0,0,1,2.372.862,3.186,3.186,0,0,1,.861,2.342v10.773h2.616V755.219A9.944,9.944,0,0,0,786.564,752.865Z" transform="translate(-658.775 -744.313)"/><path d="M809.781,751.345l6.309-5.63h-3.508l-7.266,6.763V739.819H802.7v21.37h2.615v-5.867l2.461-2.214,5.452,8.081h3.324Z" transform="translate(-670.554 -739.819)"/></g></svg>