<svg xmlns="http://www.w3.org/2000/svg" width="196.023" height="148.56" viewBox="0 0 196.023 148.56"><g transform="translate(-662.468 -634.614)"><g transform="translate(662.468 634.614)"><path d="M789.47,717.766a35.239,35.239,0,0,0-10.121-11.2,54.286,54.286,0,0,0-14.327-7.23,161.326,161.326,0,0,0-16.536-4.627c-5.442-1.288-10.831-2.471-16.115-3.575a121.383,121.383,0,0,1-14.064-3.681,29.734,29.734,0,0,1-9.964-5.31,10.673,10.673,0,0,1-3.812-8.465,10.339,10.339,0,0,1,2.182-6.967,14.291,14.291,0,0,1,5.337-3.969,23.6,23.6,0,0,1,6.94-1.788,69.671,69.671,0,0,1,7.124-.394,38.466,38.466,0,0,1,18.008,3.97c5.1,2.629,7.939,7.676,8.465,15.143H789.47c-.736-8.728-2.971-15.984-6.7-21.715A43.958,43.958,0,0,0,768.7,644.183a58.552,58.552,0,0,0-19.244-7.387,112.817,112.817,0,0,0-22.267-2.182,121.148,121.148,0,0,0-22.4,2.051,61.872,61.872,0,0,0-19.664,7.1,39.09,39.09,0,0,0-14.065,13.8q-5.323,8.715-5.31,22.372,0,9.306,3.812,15.721a33.09,33.09,0,0,0,10.1,10.647,56.209,56.209,0,0,0,14.354,6.835c5.363,1.735,10.883,3.234,16.509,4.5q20.781,4.377,32.362,8.754c7.755,2.892,11.62,7.282,11.62,13.092a14.332,14.332,0,0,1-2.445,8.6,18.866,18.866,0,0,1-6.152,5.468,30.179,30.179,0,0,1-8.2,3.023,41.745,41.745,0,0,1-8.6.946,43.886,43.886,0,0,1-11.068-1.367,28.481,28.481,0,0,1-9.411-4.232,22.661,22.661,0,0,1-6.7-7.387,21.113,21.113,0,0,1-2.6-10.779H662.468q.552,14.2,6.415,23.634a46.684,46.684,0,0,0,15.011,15.142,62.94,62.94,0,0,0,20.9,8.2,117.692,117.692,0,0,0,24.028,2.445,119.9,119.9,0,0,0,23.634-2.313,60.092,60.092,0,0,0,20.611-8.045,44.864,44.864,0,0,0,14.617-15.169q5.6-9.425,5.6-23.345Q793.282,724.483,789.47,717.766Z" transform="translate(-662.468 -634.614)"/></g><rect width="37.43" height="36.805" transform="translate(821.061 746.37)"/></g></svg>